<?xml version="1.0" encoding="utf-8"?>
<!-- Generator: Adobe Illustrator 22.1.0, SVG Export Plug-In . SVG Version: 6.00 Build 0)  -->
<svg version="1.1" xmlns="http://www.w3.org/2000/svg" xmlns:xlink="http://www.w3.org/1999/xlink" x="0px" y="0px"
	 viewBox="0 0 40 40" style="enable-background:new 0 0 40 40;" xml:space="preserve">
<style type="text/css">
	.st0{display:none;}
	.st1{display:inline;}
	.st2{display:inline;fill:#FFF200;}
	.st3{fill:#DA3A95;}
</style>
<g id="Layer_3">
</g>
<g id="Layer_1_copy" class="st0">
	<g class="st1">
		<path d="M39.4,19.6c0,3.5-0.9,6.7-2.6,9.7c-1.8,3-4.1,5.3-7.1,7.1c-3,1.8-6.2,2.6-9.7,2.6s-6.7-0.9-9.7-2.6
			c-3-1.8-5.3-4.1-7.1-7.1c-1.8-3-2.6-6.2-2.6-9.7s0.9-6.7,2.6-9.7s4.1-5.3,7.1-7.1c3-1.8,6.2-2.6,9.7-2.6s6.7,0.9,9.7,2.6
			c3,1.8,5.3,4.1,7.1,7.1S39.4,16.1,39.4,19.6z"/>
	</g>
	<path class="st2" d="M25.1,29.6c0,1.4-0.5,2.6-1.5,3.7c-1,1-2.2,1.5-3.7,1.5c-1.4,0-2.6-0.5-3.7-1.5c-1-1-1.5-2.2-1.5-3.7
		c0-1.4,0.5-2.6,1.5-3.6c1-1,2.2-1.5,3.7-1.5c1.4,0,2.6,0.5,3.7,1.5C24.6,26.9,25.1,28.2,25.1,29.6z"/>
	<path class="st2" d="M24.9,5.9L24,21.2c0,0.3-0.1,0.6-0.4,0.8c-0.3,0.3-0.6,0.4-1,0.4h-5.4c-0.4,0-0.7-0.1-1-0.4
		c-0.3-0.3-0.4-0.5-0.4-0.8L15,5.9c0-0.4,0.1-0.8,0.4-1.1c0.3-0.3,0.6-0.4,0.9-0.4h7.2c0.4,0,0.7,0.1,0.9,0.4
		C24.8,5.1,24.9,5.4,24.9,5.9z"/>
</g>
<g id="Layer_1_copy_2">
	<path class="st3" d="M36.8,9.9c-1.8-3-4.1-5.3-7.1-7.1c-3-1.8-6.2-2.6-9.7-2.6S13.3,1,10.3,2.8C7.3,4.5,5,6.9,3.2,9.9
		s-2.6,6.2-2.6,9.7s0.9,6.7,2.6,9.7c1.8,3,4.1,5.3,7.1,7.1c3,1.8,6.2,2.6,9.7,2.6s6.7-0.9,9.7-2.6c3-1.8,5.3-4.1,7.1-7.1
		c1.8-3,2.6-6.2,2.6-9.7S38.6,12.8,36.8,9.9z M15.4,4.8c0.3-0.3,0.6-0.4,0.9-0.4h7.2c0.4,0,0.7,0.1,0.9,0.4c0.3,0.3,0.4,0.6,0.4,1.1
		L24,21.2c0,0.3-0.1,0.6-0.4,0.8c-0.3,0.3-0.6,0.4-1,0.4h-5.4c-0.4,0-0.7-0.1-1-0.4c-0.3-0.3-0.4-0.5-0.4-0.8L15,5.9
		C15,5.4,15.1,5.1,15.4,4.8z M23.6,33.2c-1,1-2.2,1.5-3.7,1.5c-1.4,0-2.6-0.5-3.7-1.5c-1-1-1.5-2.2-1.5-3.7c0-1.4,0.5-2.6,1.5-3.6
		c1-1,2.2-1.5,3.7-1.5c1.4,0,2.6,0.5,3.7,1.5c1,1,1.5,2.2,1.5,3.6C25.1,31,24.6,32.2,23.6,33.2z"/>
</g>
</svg>
