<?xml version="1.0" encoding="utf-8"?>
<!-- Generator: Adobe Illustrator 22.1.0, SVG Export Plug-In . SVG Version: 6.00 Build 0)  -->
<svg version="1.1" xmlns="http://www.w3.org/2000/svg" xmlns:xlink="http://www.w3.org/1999/xlink" x="0px" y="0px"
	 viewBox="0 0 40 40" style="enable-background:new 0 0 40 40;" xml:space="preserve">
<style type="text/css">
	.st0{fill:#4EBA6F;}
	.st1{display:none;}
	.st2{display:inline;}
</style>
<g id="Layer_3">
</g>
<g id="Layer_1">
	<path class="st0" d="M0.9,21.8c-0.4-0.4-0.5-0.8-0.5-1.4s0.2-1,0.5-1.4l2.8-2.7c0.4-0.4,0.8-0.6,1.3-0.6s1,0.2,1.4,0.6l8.5,8.5
		L33.1,6.7c0.4-0.4,0.9-0.6,1.4-0.6c0.5,0,1,0.2,1.3,0.6l2.8,2.7c0.4,0.4,0.5,0.8,0.5,1.4s-0.2,1-0.5,1.4L16.3,34.4
		c-0.4,0.4-0.8,0.6-1.4,0.6c-0.6,0-1-0.2-1.4-0.6L0.9,21.8z"/>
</g>
<g id="Layer_2" class="st1">
	<g class="st2">
		<path d="M22.5,21.8c0-0.1,0-0.1,0.1-0.2l0.9-0.9c0.1-0.1,0.2-0.1,0.3-0.1s0.2,0.1,0.2,0.3v3.7c0,0.3-0.1,0.6-0.3,0.8
			s-0.5,0.3-0.8,0.3h-8.2c-0.3,0-0.6-0.1-0.8-0.3s-0.3-0.5-0.3-0.8v-8.2c0-0.3,0.1-0.6,0.3-0.8s0.5-0.3,0.8-0.3h6.7
			c0.1,0,0.2,0.1,0.3,0.2s0,0.2-0.1,0.3l-0.9,1c0,0-0.1,0.1-0.2,0.1H15v7.5h7.5V21.8z M23,15.6c0,0-0.1-0.1-0.2-0.1s-0.1,0-0.2,0.1
			l-5.1,5.1l-0.2,2.2c0,0.2,0,0.3,0.1,0.4s0.2,0.1,0.4,0.1l2.2-0.2l5.1-5.1c0,0,0.1-0.1,0.1-0.2s0-0.1-0.1-0.2L23,15.6z M26.8,15.1
			c0.2,0.2,0.3,0.4,0.3,0.7s-0.1,0.5-0.3,0.6l-0.8,0.8c0,0-0.1,0.1-0.2,0.1s-0.1,0-0.2-0.1l-2.1-2.1c0,0-0.1-0.1-0.1-0.2
			s0-0.1,0.1-0.2l0.8-0.8c0.2-0.2,0.4-0.3,0.6-0.3s0.5,0.1,0.7,0.3L26.8,15.1z"/>
	</g>
</g>
</svg>
