<?xml version="1.0" encoding="utf-8"?>
<!-- Generator: Adobe Illustrator 22.1.0, SVG Export Plug-In . SVG Version: 6.00 Build 0)  -->
<svg version="1.1" xmlns="http://www.w3.org/2000/svg" xmlns:xlink="http://www.w3.org/1999/xlink" x="0px" y="0px"
	 viewBox="0 0 40 40" style="enable-background:new 0 0 40 40;" xml:space="preserve">
<style type="text/css">
	.st0{display:none;}
	.st1{display:inline;fill:none;}
	.st2{display:inline;}
	.st3{font-family:'FontAwesome5FreeSolid';}
	.st4{font-size:12px;}
	.st5{fill:#443F98;}
</style>
<g id="Layer_3">
</g>
<g id="Layer_1" class="st0">
	<rect x="2.4" y="6.7" class="st1" width="30.8" height="26.6"/>
	<text transform="matrix(1 0 0 1 2.4165 16.8149)" class="st2 st3 st4"></text>
</g>
<g id="Layer_1_copy">
	<g>
		<path class="st5" d="M23.3,7.9c-0.2-0.2-0.4-0.3-0.6-0.3S22.2,7.8,22,7.9L2,28l-0.9,8.4C1,37,1.2,37.5,1.6,37.9s0.9,0.6,1.5,0.5
			l8.4-0.9l20.1-20.1c0.2-0.2,0.3-0.4,0.3-0.6s-0.1-0.5-0.3-0.6L23.3,7.9z"/>
		<path class="st5" d="M38.2,5.8c0.7,0.7,1,1.6,1,2.6s-0.3,1.8-1,2.5l-3.3,3.3c-0.2,0.2-0.4,0.3-0.6,0.3s-0.5-0.1-0.6-0.3l-8.2-8.2
			c-0.2-0.2-0.3-0.4-0.3-0.6s0.1-0.5,0.3-0.6l3.3-3.3c0.7-0.7,1.5-1,2.5-1c1,0,1.8,0.3,2.6,1L38.2,5.8z"/>
	</g>
</g>
</svg>
